<svg width="177.37mm" height="31.5mm" version="1.1" viewBox="0 0 177.37 31.5" xmlns="http://www.w3.org/2000/svg">
 <g transform="translate(64.247 -266.25)">
  <path d="m6 294.67v-9.7305c0-2.0057 7.9898-1.9969 8 0 0.01025 1.9969 0 9.6636 0 9.6636m-14 2.3947 2-30h2l0.25 5h3.5l0.25-5h4l0.25 5h3.5l0.25-5h2l2 30z" fill="none" stroke="#000" stroke-linecap="round" stroke-linejoin="round" stroke-width="1.5"/>
  <path d="m110.56 292.67-3.9191-7.3174h-4.2416v7.3174h-2.3936v-18.058h5.9779q3.0386 0 4.6757 1.3891 1.6495 1.3891 1.6495 4.0308 0 1.6867-0.91777 2.9518-0.90537 1.2526-2.5177 1.8728l4.2416 7.6646v0.14883zm-8.1607-16.098v6.8337h3.6587q1.9224 0 2.8898-0.97979 0.97978-0.99218 0.97978-2.3936 0-1.5627-0.94258-2.5053-0.93017-0.95498-3.0014-0.95498zm-16.83 16.098v-18.058h11.348v1.9596h-8.9545v5.8043h7.8135v1.9472h-7.8135v6.3996h9.0785v1.9472zm-2.6293-18.058-4.3656 18.058h-2.1704l-3.7207-13.159-0.28525-1.3767-0.28525 1.3767-3.8571 13.159h-2.1704l-4.378-18.058h2.3812l2.8525 12.353 0.35967 2.3936 0.49609-2.1456 3.5843-12.601h1.9968l3.4851 12.601 0.5085 2.1952 0.38447-2.4557 2.7905-12.34zm-23.453 9.5994q0 4.068-1.972 6.3872-1.972 2.3192-5.271 2.3192-3.2122 0-5.2462-2.3192-2.034-2.3192-2.034-6.3872v-1.141q0-4.0556 2.0216-6.3748 2.0216-2.3316 5.2338-2.3316 3.2742 0 5.2462 2.2944 1.9844 2.282 2.0216 6.2632zm-2.3688-1.1658q0-3.2246-1.2898-4.9361t-3.6091-1.7115q-2.22 0-3.5595 1.7115-1.327 1.7115-1.327 4.9361v1.1658q0 3.2494 1.3395 4.9733 1.3519 1.7115 3.5719 1.7115 2.3316 0 3.5967-1.7115 1.2774-1.7239 1.2774-4.9733zm-27.843-6.474v-1.9596h13.953v1.9596h-5.8043v16.098h-2.3564v-16.098zm-51.991 0v-1.9596h13.953v1.9596h-5.8043v16.098h-2.3564v-16.098zm2.158 14.151v1.9472h-10.951v-18.058h2.3937v16.111zm-29.257 1.9472 6.8833-18.058h2.096l6.9081 18.058h-2.4557l-1.7239-4.7253h-7.553l-1.7115 4.7253zm4.8741-6.6849h6.1268l-3.0634-8.4212zm-8.5948 2.1208q0-1.2402-0.84336-1.9844-0.83096-0.74414-3.5099-1.5255-2.6789-0.79375-4.2416-2.0092-1.5503-1.2278-1.5503-3.3114 0-2.1084 1.6743-3.5099 1.6867-1.4015 4.4648-1.4015 3.051 0 4.7005 1.6743 1.6619 1.6743 1.6619 3.7827h-2.3812q0-1.5131-0.97979-2.5053-0.97978-0.99219-3.0014-0.99219-1.91 0-2.8277 0.84336-0.91777 0.83096-0.91777 2.0836 0 1.1286 0.96738 1.8852 0.97979 0.74414 3.175 1.3643 3.1378 0.88056 4.5765 2.1828 1.4387 1.2898 1.4387 3.3982 0 2.2076-1.7239 3.5223t-4.5765 1.3146q-1.6619 0-3.237-0.62012-1.5627-0.62012-2.5797-1.8356-1.0046-1.2278-1.0046-3.0262h2.3812q0 1.848 1.3519 2.6913 1.3519 0.84336 3.0882 0.84336 1.8728 0 2.8773-0.76895 1.017-0.78134 1.017-2.096z"/>
 </g>
</svg>
